<svg version="1.2" xmlns="http://www.w3.org/2000/svg" viewBox="540 835 1920 1325" width="1920" height="1325">
	<style>
		.s0 { fill: #83bb30 } 
		.s1 { fill: #30bbad } 
		.s2 { fill: #6830bb } 
		.s3 { paint-order:stroke fill markers;stroke: #6830bb;stroke-width: 10;stroke-linejoin: round;;fill: #ffffff } 
	</style>
	<path fill-rule="evenodd" class="s0" d="m1087.43 840h1253.83c63.78 0 115.48 51.7 115.48 115.48v659.92c0 63.78-51.7 115.48-115.48 115.48h-1253.83c-63.78 0-115.49-51.7-115.49-115.48v-659.92c0-63.78 51.71-115.48 115.49-115.48z"/>
	<path fill-rule="evenodd" class="s1" d="m658.48 1268.94h1253.84c63.78 0 115.48 51.71 115.48 115.49v659.91c0 63.78-51.7 115.48-115.48 115.48h-1253.84c-63.78 0-115.48-51.7-115.48-115.48v-659.91c0-63.78 51.7-115.49 115.48-115.49z"/>
	<path fill-rule="evenodd" class="s2" d="m872.96 1054.47h1253.83c63.78 0 115.48 51.71 115.48 115.49v659.91c0 63.78-51.7 115.48-115.48 115.48h-1253.83c-63.78 0-115.49-51.7-115.49-115.48v-659.91c0-63.78 51.71-115.49 115.49-115.49z"/>
	<path id="PLAYMAT STUDIO" class="s3" aria-label="PLAYMAT
STUDIO"  d="m532.2 1259.3l128.8-57.7 191.8 45-26.5 144.1q-31.9 15.1-59.9 31.5-28 16-55 32.3-26.4 16.1-53.2 32.9-27 16.3-56.1 31.9-8.3 4.6-11.4 10.9-3.1 6.4-4.4 14.5l-14.3 98.8-84.1-14.8 21-70-19.9 7.7-3-76.4q15.1-7.9 24.3-13.1 9.1-5.8 13.8-9.3 5.1-4 6.8-6.4 1.7-3 2.8-5.8 11.1-41.9 22.2-78.1 11.1-36.7 18-72.6-9.1 5.8-16.2 10.7-6.7 4.3-13.8 9.3zm126 22.2l-31.6 127.7 3.8 3.5q30.2-18.9 60.1-36.8 29.7-18.3 60.6-36.3 11.1-6.7 14.5-14.7 3.3-7.9-0.9-19.8zm264.8-113.5l77.4 16q-10 39.6-20.8 74.6-10.9 34.6-21 67.4-9.7 32.2-17.7 64.7-8.1 32.5-12.6 66.9l59.9-64.6q11.2 18 20.6 35.3 10 17.3 20.7 34.9-27.4 13.7-51.2 30-23.3 15.6-45.7 36.4-5.5 5.1-8.7 7.8-3.4 2.2-6.6 2.2-2.6-0.1-5.7-2.2-3.1-2.6-8.2-7.5l-55.3-47.2q18.4-78.5 37-156.5 18.6-78 37.9-158.2zm363.3 107.2l17.5 59.1q-9.2 2.7-19.8 2.9-10.1 0.2-21.2 3.2-7.4 45.5-15.2 91.1-7.4 45.5-15 92.1l-94.9-21.4q11.9-37.3 24.3-72.6 12.2-35.9 21.1-72.7-0.5 0.1-4.5 1.3-3.7 0.7-10.2 2.9-6.1 1.6-14.2 4-7.7 1.9-15.7 4.3-4.6 13.5-10.9 31.9-5.7 18.4-11.6 36.3-5.9 17.9-10.7 32.9-4.3 14.4-5.3 20.9-18.1-6.3-38.1-13.9-19.5-7.6-36.9-12.5 2.4-7.2 6.1-16.3 4.3-9.2 8.5-18.3 4.1-9.7 7.8-18.8 3.6-9.6 5.6-16.7-4.7 0.8-8.8 1.5-4.3 0.2-9 0.5-5.5-15.9-10.5-31.9-4.5-16.5-10.4-34.5 1-0.2 4.7-0.8 3.5-1.1 8.6-2.5 7.5-2.4 17.8-4.7 10.2-2.3 20.5-4.6 9-17.9 21.3-41.7 12.2-24.2 23.9-48.4 12.2-24.2 22.7-45.5 11-21.9 17.1-35.6 2.6-6.3 13.1-13.4 10.5-7 22.6-13.4 12.1-6.8 23.5-12 11.7-5.7 17-9.2 6.8-3.9 11.5-4.2 4.7-0.3 11.1 2.8 15.3 7.9 30.6 15.8 15.6 7.3 31.9 14.9l-40.7 148.2zm-54.8-86.2l-37.5 19.7q-16.5 27-25.8 52.4-9.4 24.8-10.9 37.1l29.9-5.2q6.7-1.1 10.4-4.4 3.6-3.8 5.8-9.5 5.8-21 13.8-45 8-24 14.3-45.1zm108.5-84.8q23.6 0.7 44.8-2.5 21.2-3.7 42.4-4.7-10.1 48-20.4 94.6-9.9 46.5-20.1 93.5 8.1 3.9 12 1.6 3.8-2.2 7-8.6 32.4-59.9 63.1-117.9 31.2-58 64.1-115.4 16.2 6.7 37.8 14.5 21.5 7.3 37.8 15-32.9 54.2-62.1 105.6-29.3 50.9-55.6 100.8-25.7 49.7-48.2 100-22 49.6-40.6 100.8-18.3-6.9-36.6-14.2-17.9-7.4-37.7-14 12.4-26.3 24.3-52.1 12.4-25.9 24.3-51.6-12.8-9.4-27.8-12.6-14.9-3.1-29.4-9.6 3.1-27.4 6.7-54.8 4.2-27.6 7.8-55.1 3.5-28 5.4-56.2 1.9-28.2 1-57.1zm586.1-71.5q-15.4 56.9-27.1 113.7-11.3 56.2-15.3 114.3-2.1 27.2-1.7 53.4 1 26.2 0.4 53.1l-86.7-11.2q6.4-42.2 12.3-83.7 5.8-42.1 11.5-87.9-24.2 43.7-43.9 85.6-19.7 41.9-37.4 86-20.4-0.6-40.3-1.9-20-1.3-39.8-2l-29.7-121.7q-1.6 0.2-3.2 0-13.9 104-15.5 211.7-23.3-2.2-46-4.1-22.2-1.9-45.4-3.6 18.2-103.8 36.8-205.5 18.6-102.2 37.3-206 18.3 1 36.6 2 18.2 0.5 36 1.7 3.2 32.6 6.6 60.9 3.9 27.8 8.1 54.4 4.8 26.6 11.1 52.9 6.3 26.2 15.8 55.6 40-53.3 70.4-109.6 30.4-56.9 59.7-113.6 21 10 43.2 9.3 22.3-0.7 46.2-3.8zm250.6 87.4l17.4 59.1q-9.1 2.6-19.7 2.9-10.1 0.2-21.3 3.2-7.3 45.5-15.1 91.1-7.4 45.5-15 92.1l-95-21.4q12-37.4 24.4-72.7 12.2-35.8 21.1-72.6-0.5 0.1-4.6 1.3-3.6 0.6-10.1 2.8-6.1 1.6-14.2 4.1-7.7 1.8-15.8 4.3-4.5 13.4-10.8 31.9-5.8 18.4-11.6 36.2-5.9 17.9-10.7 33-4.3 14.4-5.3 20.9-18.2-6.3-38.2-13.9-19.4-7.6-36.8-12.5 2.4-7.3 6.1-16.4 4.2-9.1 8.5-18.3 4.1-9.6 7.8-18.7 3.6-9.6 5.5-16.8-4.6 0.8-8.7 1.6-4.3 0.2-9 0.5-5.5-15.9-10.5-31.9-4.6-16.6-10.4-34.5 1-0.2 4.6-0.8 3.6-1.2 8.6-2.6 7.6-2.3 17.9-4.7 10.2-2.3 20.4-4.6 9.1-17.9 21.4-41.6 12.2-24.2 23.8-48.4 12.2-24.2 22.8-45.5 11-22 17.1-35.7 2.6-6.2 13.1-13.3 10.4-7.1 22.6-13.4 12.1-6.9 23.5-12 11.7-5.7 17-9.3 6.7-3.8 11.5-4.1 4.7-0.3 11.1 2.8 15.3 7.9 30.5 15.7 15.7 7.3 32 15l-40.7 148.2zm-54.8-86.3l-37.5 19.7q-16.5 27.1-25.8 52.4-9.4 24.8-11 37.2l30-5.2q6.7-1.2 10.4-4.5 3.6-3.7 5.8-9.4 5.8-21 13.8-45 8-24.1 14.3-45.2zm367-233.4q6.3 14.6 12.6 28.8 6.2 13.7 13 27.8-17.6 6.2-33.7 11.6-16 5.5-32 11.4-20 7.7-40.4 15.5-20.1 7.1-39.7 16.4-7.1 2.2-11.1 6.6-3.5 4.3-6.1 10.6-12.4 37.9-24.2 85.3-11.9 46.8-21.2 96.3-9.3 49-15.2 96.9-5.8 47.9-6.8 87 0.6 9.4 0.1 18.9 0 9 0.3 19.5-25.3-7.2-49.4-14.1-23.7-7.4-49.7-16 8.8-36.9 20.4-82.6 11.6-45.7 23.3-93.5 12.2-48 23.7-94.2 11.4-46.2 20.7-83.6-13.5 7.6-25.6 14.4-12.2 6.4-24.3 13.2-10.2-15.1-19.4-30.8-8.8-16.4-17.7-30.6 8-6.2 29-16.7 21-10.5 48.8-22.2 28.3-11.7 60.8-23.7 32.9-12.6 63.5-23.2 31.1-10.7 57.4-18.4 26.9-7.9 42.9-10.6zm-1575.1 1192l-14.1-49.1q12.2-21.6 26.1-45.1 14.4-23.6 29.5-46.7 15.5-23.3 32.4-45.2 16.8-22.4 34.5-42.3 10.7 6 22.7 13.4 12.4 6.8 24.9 14.1 12.5 7.3 24.4 14.2 12.4 6.8 22.4 12.4-13.6 19.2-29.4 41.5-15.8 21.7-27.5 45.8-7.4-6.1-15.3-11.5-7.5-6.1-16-12-11.4 16.7-22.2 33.9-10.9 16.6-23.2 34.6 7.4 5.5 19.2 14.5 12.2 9 24.7 19.4 13.1 10.4 24.6 21 11.3 10.1 18.1 17.9l-10.1 51.2q-7.7 10.3-18.5 24.3-11 13.5-22.6 28.7-11.2 15.1-21.9 29.6-10.3 13.9-17.5 24.7-3 3.7-5 7.7-1.9 4-4.8 8.7-19-13.5-36.2-26.3-17.2-12.8-34.8-25 4-4.4 9.8-10.7 5.8-6.3 16.2-17 10.8-10.9 27.6-27.5 17.2-17.2 43.1-42.2-6.1-10-16.1-18.3-9.6-8.8-20.9-15.8-10.9-7.1-23.1-12.8-11.7-5.9-21-10.1zm458-365.6q6.3 14.7 12.6 28.8 6.2 13.7 12.9 27.8-17.5 6.2-33.6 11.6-16.1 5.5-32.1 11.4-19.9 7.7-40.4 15.5-20 7.1-39.6 16.4-7.1 2.2-11.1 6.6-3.5 4.3-6.1 10.6-12.4 37.9-24.2 85.3-11.9 46.8-21.2 96.3-9.4 49-15.2 96.9-5.9 47.9-6.9 87 0.6 9.4 0.2 18.9 0 9 0.3 19.5-25.3-7.2-49.4-14.1-23.7-7.4-49.8-16 8.9-36.9 20.5-82.6 11.5-45.7 23.2-93.5 12.3-48 23.7-94.2 11.5-46.2 20.8-83.6-13.5 7.6-25.6 14.4-12.2 6.4-24.3 13.2-10.2-15-19.4-30.8-8.8-16.4-17.7-30.6 8-6.1 29-16.7 21-10.5 48.8-22.1 28.2-11.8 60.7-23.8 33-12.6 63.6-23.2 31.1-10.7 57.4-18.4 26.9-7.8 42.9-10.6zm-70.6 383.9l19.7 2.9q17.5-45.6 32.7-82.5 15.2-37.4 28.1-69.7 10.3-28.6 22.2-54.9 12.3-26.4 23.2-54.6 17.8 3.8 33.2 6.8 15.5 3.1 31.5 6.2-31.1 88.5-45.6 180.6-13.9 91.9-17.4 179.9-17.9 1-39.1-1.1-20.6-2.2-38.4-0.1l12.1-72.7q-1.3-1.3-3.4-1-9.7 29.1-21.9 59.1-30.4-8.9-61.3-15.1-31.1-6.7-62.1-16.5 6-23.2 12.6-51.7 7.1-28.7 14.4-59.4 7.8-30.9 15.1-62.1 7.2-31.3 13.4-59.2 6.6-28.5 11.5-52 5.3-23.6 8.4-39.4 0.9-7 2.4-13.6 1.9-7.2 3.2-14.8l72 6.4q-5.3 24.1-13.8 59.8-8.2 35.2-17.7 74.2-9.1 38.4-18.8 77-9.2 37.9-16.2 67.5zm144.4 38.6q26.3-88.3 52-174.4 25.6-86 51.6-173.2 9.2 3.6 17.3 7 8.5 3.2 17.1 6.5 17.6-8.9 34.8-17.2 17.1-8.7 35.4-16.7 8.9-3.6 13.3-6 4.4-2.3 7.7-1.3 3.3 0.5 6.7 4.6 3.9 3.6 11.2 11.8 11.5 13.8 23.1 28 12.1 14.3 24.8 28.4 9.2 9.9 6.1 22.1-11.6 48.8-24.5 92.7-12.6 43.2-27.4 88.5-2.9 7.8-6.8 15.4-4 7.5-8 15.1-7.6 13.9-26 30.3-18 15.8-40.6 29.2-22.3 12.8-45.3 21-23.1 7.7-40.7 5-20.9-3.7-41.4-8.1-19.9-4.4-40.4-8.7zm106-71.6q9.9-4.4 19.3-8.2 9.4-4.2 17-9.2 8.1-5.6 14.8-12.6 6.8-7 11.3-17.3 8.1-17.7 17.5-42.5 9.8-25.4 18-51.5 8-26.7 13.4-50.3 5.8-24.2 5.2-39.3-12.2 8.9-24 17.8-11.3 8.3-22.2 16-10.9 7.2-15 20-14.5 44.6-29 88.8-14 43.5-26.3 88.3zm339.3 23.5q-26.7 2.5-51.6 9-24.5 6.4-48.5 15.3-24 8.4-47.4 17.7-22.9 9.3-46.8 18.7-10.2-12.4-16.4-26.6-6.3-14.2-14.2-28.6 22-14.4 45.7-24.8 23.6-11 47.4-23.6-6-4.2-11.5-8-5-4.3-10.6-8.6 26-54.6 41.9-111.6 16.4-57.6 32.8-117.8-6.9 3.3-11.9 5.2-5 1.9-8.8 4.2l-20.5 10.9q-6.2-14.2-11.7-26.9-5-13.3-11.4-28 55.6-26 110.9-50.4 55.2-24.9 115.4-40.1l-4.5 97.1-60.5 7.4-1-20.4q-6.3-2.6-12 1.1-5.4 3-12.6 4.3 3.5 4.6 5.4 9 2.2 3.8 5.5 7 4.6 5 4.3 9.2 0.2 4.2-2.1 9.3-25.8 52.4-42.6 107.5-16.4 54.4-31.4 110.8-0.7 2.2-0.7 4.8-0.2 2.2-1.5 6.6 10.5-3.4 19.7-6.1 9.1-2.6 18.2-5.2 11.6-3.7 14.6-2.1 2.9 1.6 5 13.4 3.2 14.7 6.3 29.4 3.2 14.7 7.1 30.9zm96-373.1l59-30.3q10.7 2.8 24.8 7.2 14.5 3.8 29.2 8.6 14.6 4.3 28.7 8.7 14 3.9 24.7 6.8 8.4 2.2 12.8 6.2 4.9 3.3 5.9 12.1 1.8 13.4 5.1 25.9 3.9 12.5 7.8 25.5 2.4 7.5 1.6 15-0.4 6.9-2.7 14.7-18.1 51.1-35.1 101.9-17 50.9-33.3 102.7-2.6 9.4-9 15.8-6.4 5.9-13.1 12.8-17.3 16.7-35.4 19.9-17.5 3-38.5-7-16.9-8.1-35.6-14.3-18.2-6.3-36.3-12.1l-34.5-74.1q2.8-8.3 4.9-17.6 2.5-9.4 5.6-18.9 7.3-25 15.7-52.8 8.3-27.8 16.8-55 8.9-27.9 16.5-54 8.1-26.1 14.4-47.7zm8.9 202.1l11.8 39.6q11.3 6.4 22.8 11.3 12 4.7 24.8 7.8l53.7-156.3q4-10.2-1-20.3-5-10.2-15.9-14.6l-47.4-17.6q-0.4 0.6-0.9 0.7-0.1-0.5-0.5 0.1-6.6 16.9-12.8 35.9-5.7 18.9-11.8 38.4-5.6 19.4-11.2 38.8-5.7 18.9-11.6 36.2z"/>
</svg>